STARTFONT 2.1
FONT -FontForge-Monoround-Normal-R-Normal--31-300-75-75-P-197-ISO10646-1
SIZE 30 75 75
FONTBOUNDINGBOX 29 23 0 0
COMMENT "Generated by fontforge, http://fontforge.sourceforge.net"
COMMENT "Copyright (c) 2019, Kafa Studio"
STARTPROPERTIES 39
FOUNDRY "FontForge"
FAMILY_NAME "Monoround"
WEIGHT_NAME "Normal"
SLANT "R"
SETWIDTH_NAME "Normal"
ADD_STYLE_NAME ""
PIXEL_SIZE 31
POINT_SIZE 300
RESOLUTION_X 75
RESOLUTION_Y 75
SPACING "P"
AVERAGE_WIDTH 197
CHARSET_REGISTRY "ISO10646"
CHARSET_ENCODING "1"
FONTNAME_REGISTRY ""
CHARSET_COLLECTIONS "ISO10646-1"
FONT_NAME "Monoround"
FACE_NAME "Monoround"
COPYRIGHT "Copyright (c) 2019, Kafa Studio"
FONT_VERSION "001.001"
FONT_ASCENT 22
FONT_DESCENT 9
UNDERLINE_POSITION -3
UNDERLINE_THICKNESS 2
CAP_HEIGHT 22
RAW_ASCENT 725
RAW_DESCENT 275
NORM_SPACE 10
RELATIVE_WEIGHT 40
RELATIVE_SETWIDTH 50
SUPERSCRIPT_X 0
SUPERSCRIPT_Y 14
SUPERSCRIPT_SIZE 21
SUBSCRIPT_X 0
SUBSCRIPT_Y 4
SUBSCRIPT_SIZE 21
FIGURE_WIDTH -1
AVG_LOWERCASE_WIDTH 310
AVG_UPPERCASE_WIDTH 209
ENDPROPERTIES
CHARS 30
STARTCHAR space
ENCODING 32
SWIDTH 334 0
DWIDTH 10 0
BBX 1 1 0 0
BITMAP
00
ENDCHAR
STARTCHAR exclam
ENCODING 33
SWIDTH 194 0
DWIDTH 6 0
BBX 4 23 1 0
BITMAP
60
F0
F0
F0
F0
F0
F0
F0
F0
F0
F0
F0
F0
F0
F0
60
00
00
60
F0
F0
F0
60
ENDCHAR
STARTCHAR question
ENCODING 63
SWIDTH 467 0
DWIDTH 14 0
BBX 13 23 1 0
BITMAP
0F80
3FC0
7FE0
7FF0
FFF0
F8F0
F8F8
F0F0
67F0
0FF0
0FE0
0FC0
0F00
0F00
0F00
0E00
0000
0000
0600
0F00
0F80
0F00
0600
ENDCHAR
STARTCHAR A
ENCODING 65
SWIDTH 768 0
DWIDTH 24 0
BBX 22 23 1 0
BITMAP
003000
007800
00FC00
00FC00
01FC00
01FE00
03FE00
03FF00
07FF00
07CF80
07CF80
0F87C0
0FFFC0
1FFFE0
1FFFE0
3FFFF0
3FFFF0
7C00F8
7C00F8
F8007C
F8007C
F0003C
200010
ENDCHAR
STARTCHAR B
ENCODING 66
SWIDTH 638 0
DWIDTH 20 0
BBX 18 23 1 0
BITMAP
7FF800
FFFE00
FFFF00
FFFF80
FFFF80
F80780
F807C0
F807C0
F80F80
FFFF80
FFFF00
FFFF00
FFFF80
FFFF80
F80F80
F807C0
F807C0
F80780
FFFF80
FFFF80
FFFF00
FFFE00
7FF800
ENDCHAR
STARTCHAR C
ENCODING 67
SWIDTH 727 0
DWIDTH 23 0
BBX 20 23 1 0
BITMAP
00FE00
03FF80
0FFFE0
1FFFF0
3FFFF0
3F01F0
7E00E0
7C0000
780000
F80000
F80000
F80000
F80000
F80000
7C0000
7C0000
7E00E0
3F01F0
3FFFF0
1FFFE0
0FFFC0
03FF80
00FE00
ENDCHAR
STARTCHAR D
ENCODING 68
SWIDTH 651 0
DWIDTH 20 0
BBX 18 23 1 0
BITMAP
7FC000
FFF000
FFFC00
FFFE00
FFFF00
F83F00
F81F80
F80F80
F807C0
F807C0
F807C0
F807C0
F807C0
F807C0
F807C0
F80F80
F81F80
F83F00
FFFF00
FFFE00
FFFC00
FFF000
7FC000
ENDCHAR
STARTCHAR E
ENCODING 69
SWIDTH 653 0
DWIDTH 20 0
BBX 18 23 1 0
BITMAP
7FFF80
7FFFC0
FFFFC0
FFFF80
FFFF00
F80000
F80000
F80000
F80000
FF8000
FFE000
FFE000
FFE000
FFC000
F80000
F80000
F80000
F80000
FFFF00
FFFF80
FFFFC0
FFFFC0
7FFF80
ENDCHAR
STARTCHAR F
ENCODING 70
SWIDTH 599 0
DWIDTH 19 0
BBX 15 23 2 0
BITMAP
FFFC
FFFE
FFFE
FFFE
FFFC
F000
F000
F000
F000
FF00
FFC0
FFC0
FFC0
FF80
F000
F000
F000
F000
F000
F000
F000
F000
E000
ENDCHAR
STARTCHAR G
ENCODING 71
SWIDTH 723 0
DWIDTH 22 0
BBX 20 23 1 0
BITMAP
003000
01FF00
07FFC0
0FFFE0
1FFFF0
3F83F0
7E01F0
7C0040
780000
F807C0
F81FF0
F81FF0
F81FF0
F80FF0
F801F0
7C01F0
7E01F0
3F01F0
3FFFF0
1FFFE0
0FFFC0
03FF80
00FE00
ENDCHAR
STARTCHAR H
ENCODING 72
SWIDTH 634 0
DWIDTH 20 0
BBX 17 23 1 0
BITMAP
700380
F80780
F80780
F80780
F80780
F80780
F80780
F80780
F80780
FFFF80
FFFF80
FFFF80
FFFF80
FFFF80
F80780
F80780
F80780
F80780
F80780
F80780
F80780
F80780
700300
ENDCHAR
STARTCHAR I
ENCODING 73
SWIDTH 227 0
DWIDTH 7 0
BBX 5 23 1 0
BITMAP
70
F8
F8
F8
F8
F8
F8
F8
F8
F8
F8
F8
F8
F8
F8
F8
F8
F8
F8
F8
F8
F8
70
ENDCHAR
STARTCHAR J
ENCODING 74
SWIDTH 684 0
DWIDTH 21 0
BBX 18 23 2 0
BITMAP
01FF80
03FFC0
03FFC0
01FFC0
00FFC0
0007C0
0007C0
0007C0
0007C0
0007C0
0007C0
0007C0
F007C0
F007C0
F007C0
F807C0
F80F80
FC1F80
7FFF00
7FFF00
3FFE00
0FFC00
03E000
ENDCHAR
STARTCHAR K
ENCODING 75
SWIDTH 684 0
DWIDTH 21 0
BBX 19 23 1 0
BITMAP
7001C0
F807E0
F80FE0
F83FC0
F87F80
F9FF00
FBFC00
FFF800
FFE000
FFC000
FF0000
FE0000
FF0000
FFC000
FFE000
FFF800
FBFC00
F9FF00
F87F80
F83FC0
F80FE0
F807C0
7001C0
ENDCHAR
STARTCHAR L
ENCODING 76
SWIDTH 502 0
DWIDTH 16 0
BBX 13 23 1 0
BITMAP
7000
F800
F800
F800
F800
F800
F800
F800
F800
F800
F800
F800
F800
F800
F800
F800
F800
F800
FFF0
FFF8
FFF8
FFF8
7FF0
ENDCHAR
STARTCHAR M
ENCODING 77
SWIDTH 817 0
DWIDTH 25 0
BBX 23 23 1 0
BITMAP
20000C
78001E
F8003E
FC007E
FE00FE
FF01FE
FF81FE
FFC3FE
FFC7FE
FFEFDE
FBFF9E
F9FF1E
F8FF1E
F87E1E
F83C1E
F8181E
F8001E
F8001E
F8001E
F8001E
F8001E
F8001E
70001C
ENDCHAR
STARTCHAR N
ENCODING 78
SWIDTH 766 0
DWIDTH 24 0
BBX 22 23 1 0
BITMAP
700038
F8007C
FC007C
FE007C
FF007C
FF007C
FF807C
FFC07C
FFE07C
FBF07C
F9F87C
F8FC7C
F87E7C
F83F7C
F81FFC
F80FFC
F80FFC
F807FC
F803FC
F801FC
F800FC
F0007C
700038
ENDCHAR
STARTCHAR O
ENCODING 79
SWIDTH 778 0
DWIDTH 24 0
BBX 23 23 0 0
BITMAP
00FE00
03FF80
07FFE0
0FFFF0
1FFFF8
3F01F8
3E00FC
7C007C
7C003E
78003E
F8003E
F8003E
F8003E
78003E
7C003E
7C007C
7E00FC
3F81F8
1FFFF8
0FFFF0
07FFE0
03FF80
00FE00
ENDCHAR
STARTCHAR P
ENCODING 80
SWIDTH 622 0
DWIDTH 19 0
BBX 17 23 1 0
BITMAP
7FF800
FFFE00
FFFF00
FFFF80
FFFF80
F80F80
F80780
F80780
F80F80
FFFF80
FFFF80
FFFF00
FFFE00
FFF800
F80000
F80000
F80000
F80000
F80000
F80000
F80000
F80000
700000
ENDCHAR
STARTCHAR Q
ENCODING 81
SWIDTH 784 0
DWIDTH 24 0
BBX 23 23 1 0
BITMAP
00FE00
03FF80
07FFE0
1FFFF0
1FFFF8
3F01F8
7E00FC
7C007C
78007C
F8383E
F87C3E
F87E3E
F87F3E
F83FBE
7C1FFC
7C0FFC
7E07FC
3F03F8
1FFFFC
1FFFFC
0FFFFE
03FFBE
00FE1C
ENDCHAR
STARTCHAR R
ENCODING 82
SWIDTH 648 0
DWIDTH 20 0
BBX 18 23 1 0
BITMAP
7FF800
FFFE00
FFFF00
FFFF80
FFFF80
F807C0
F807C0
F807C0
F80F80
FFFF80
FFFF80
FFFF00
FFFE00
FFFE00
F83E00
F83F00
F81F00
F81F80
F80F80
F80F80
F807C0
F00780
700380
ENDCHAR
STARTCHAR S
ENCODING 83
SWIDTH 645 0
DWIDTH 20 0
BBX 18 23 1 0
BITMAP
03F800
1FFF00
3FFFC0
7FFFC0
7FFFC0
FC0780
F80000
F80000
FC0000
FFF800
7FFE00
3FFF80
1FFF80
01FFC0
0007C0
0007C0
0007C0
780FC0
FFFFC0
FFFF80
7FFF00
3FFE00
07F800
ENDCHAR
STARTCHAR T
ENCODING 84
SWIDTH 637 0
DWIDTH 20 0
BBX 18 23 1 0
BITMAP
7FFF80
FFFFC0
FFFFC0
FFFF80
7FFF00
03E000
03E000
03E000
03E000
03E000
03E000
03E000
03E000
03E000
03E000
03E000
03E000
03E000
03E000
03E000
03E000
01E000
01C000
ENDCHAR
STARTCHAR U
ENCODING 85
SWIDTH 650 0
DWIDTH 20 0
BBX 18 23 1 0
BITMAP
700380
F803C0
F807C0
F807C0
F807C0
F807C0
F807C0
F807C0
F807C0
F807C0
F807C0
F807C0
F807C0
F807C0
F807C0
F807C0
FC07C0
7E0F80
7FFF80
3FFF00
1FFE00
0FFC00
03F000
ENDCHAR
STARTCHAR V
ENCODING 86
SWIDTH 668 0
DWIDTH 21 0
BBX 18 23 1 0
BITMAP
200100
7803C0
F807C0
FC07C0
7C07C0
7E0FC0
7E0F80
3E1F80
3F1F80
3F1F00
1F3F00
1FBE00
0FBE00
0FFE00
0FFC00
07FC00
07FC00
07F800
03F800
03F000
01F000
01F000
00E000
ENDCHAR
STARTCHAR W
ENCODING 87
SWIDTH 961 0
DWIDTH 30 0
BBX 28 23 1 0
BITMAP
20000040
780001E0
FC0001F0
FC0003F0
7C0003E0
7E0007E0
7E0F07E0
3E0F87C0
3F1F8FC0
1F1F8F80
1FBFCF80
1FBFDF80
0FBFDF00
0FFFFF00
0FFFFF00
07FFFE00
07FFFE00
03F9FC00
03F9FC00
03F9FC00
01F0F800
01F0F800
00E07000
ENDCHAR
STARTCHAR X
ENCODING 88
SWIDTH 789 0
DWIDTH 24 0
BBX 22 23 1 0
BITMAP
200010
F8003C
FC007C
FE00FC
FF01FC
7F83F8
3FC7F0
1FEFE0
0FFFC0
07FF80
03FF00
01FE00
01FF00
03FF80
07FFC0
0FFFC0
1FCFE0
3F87F0
7F03F8
FE01FC
FC00FC
F8007C
700038
ENDCHAR
STARTCHAR Y
ENCODING 89
SWIDTH 645 0
DWIDTH 20 0
BBX 18 23 1 0
BITMAP
200000
F003C0
F807C0
F807C0
F807C0
F807C0
F807C0
FC07C0
7C0F80
7FFF80
3FFF00
1FFE00
0FFC00
03F000
01E000
01E000
01E000
01E000
01E000
01E000
01E000
01E000
00C000
ENDCHAR
STARTCHAR Z
ENCODING 90
SWIDTH 692 0
DWIDTH 21 0
BBX 19 23 1 0
BITMAP
7FFFE0
FFFFE0
FFFFE0
FFFFE0
3FFFC0
000F80
001F80
003F00
007E00
007C00
00FC00
01F800
03F000
03E000
07E000
0FC000
1F8000
1F0000
3FFFC0
7FFFE0
7FFFE0
7FFFE0
3FFFC0
ENDCHAR
STARTCHAR .notdef
ENCODING -1
SWIDTH 500 0
DWIDTH 16 0
BBX 12 15 2 0
BITMAP
FFF0
FFF0
8030
8030
8030
8030
8030
8030
8030
8030
8030
8030
8030
FFF0
FFF0
ENDCHAR
ENDFONT
